<svg width="1080" height="1080" viewBox="0 0 1080 1080" fill="none" xmlns="http://www.w3.org/2000/svg">
<g clip-path="url(#clip0_3_47)">
<path d="M844.246 347.29C844.001 346.635 843.638 346.04 843.182 345.536L747.968 242.592C747.508 242.089 746.959 241.689 746.354 241.416C745.75 241.143 745.104 241.002 744.451 241H681.05C679.723 241.005 678.452 241.577 677.512 242.592L233.471 723.007C233.005 723.507 232.635 724.1 232.383 724.757C232.13 725.413 232 726.115 232 726.824C232 727.536 232.13 728.238 232.383 728.895C232.635 729.548 233.005 730.144 233.471 730.644L328.621 833.612C328.71 833.668 328.795 833.728 328.877 833.795C329.211 834.112 329.584 834.377 329.986 834.578L330.434 834.81C330.982 835.052 331.569 835.179 332.161 835.179H395.58C396.246 835.183 396.906 835.041 397.521 834.765C398.116 834.493 398.659 834.101 399.12 833.612L652.881 559.062L684.571 524.778L843.162 353.196C843.849 352.436 844.319 351.473 844.509 350.427C844.699 349.382 844.599 348.299 844.226 347.313L844.246 347.29ZM805.864 378.251H756.498L778.206 354.765H827.507L805.864 378.251ZM774.133 412.628H724.829L746.562 389.118H795.841L774.133 412.628ZM742.402 446.935H693.122L714.83 423.448H764.131L742.402 446.935ZM710.691 481.265H661.412L683.12 457.755H732.399L710.691 481.265ZM678.984 515.526H629.68L651.409 492.04H700.692L678.984 515.526ZM647.253 549.833H597.97L619.678 526.347H669.068L647.253 549.833ZM615.542 584.163H566.261L588.033 560.654H637.316L615.542 584.163ZM583.77 618.472H534.531L556.26 594.892H605.54L583.77 618.472ZM552.038 652.777H502.736L524.444 629.293H573.746L552.038 652.777ZM520.393 687.175H471.09L492.82 663.669H542.101L520.393 687.175ZM488.683 721.484H439.38L461.089 697.996H510.391L488.683 721.484ZM456.952 755.815H407.671L429.379 732.305H478.682L456.952 755.815ZM425.242 790.121H375.94L397.67 766.636H446.951L425.242 790.121ZM778.269 343.944L756.498 320.458H805.778L827.507 343.944H778.269ZM795.841 309.637H746.562L724.829 286.128H774.133L795.841 309.637ZM764.131 275.307H714.83L693.122 251.82H742.402L764.131 275.307ZM680.967 254.058L709.136 284.536L740.843 318.843L769.016 349.343L332.14 822.12L244.069 726.839L680.967 254.058ZM344.231 824.359L365.939 800.874H415.305L393.576 824.359H344.231Z" fill="#2FA52D" stroke="#2FA52D"/>
<path d="M844.246 347.29C844.001 346.635 843.638 346.04 843.182 345.536L747.968 242.592C747.508 242.089 746.959 241.689 746.354 241.416C745.75 241.143 745.104 241.002 744.451 241H681.05C679.723 241.005 678.452 241.577 677.512 242.592L233.471 723.007C233.005 723.507 232.635 724.1 232.383 724.757C232.13 725.413 232 726.115 232 726.824C232 727.536 232.13 728.238 232.383 728.895C232.635 729.548 233.005 730.144 233.471 730.644L328.621 833.612C328.71 833.668 328.795 833.728 328.877 833.795C329.211 834.112 329.584 834.377 329.986 834.578L330.434 834.81C330.982 835.052 331.569 835.179 332.161 835.179H395.58C396.246 835.183 396.906 835.041 397.521 834.765C398.116 834.493 398.659 834.101 399.12 833.612L652.881 559.062L684.571 524.778L843.162 353.196C843.849 352.436 844.319 351.473 844.509 350.427C844.699 349.382 844.599 348.299 844.226 347.313L844.246 347.29ZM805.864 378.251H756.498L778.206 354.765H827.507L805.864 378.251ZM774.133 412.628H724.829L746.562 389.118H795.841L774.133 412.628ZM742.402 446.935H693.122L714.83 423.448H764.131L742.402 446.935ZM710.691 481.265H661.412L683.12 457.755H732.399L710.691 481.265ZM678.984 515.526H629.68L651.409 492.04H700.692L678.984 515.526ZM647.253 549.833H597.97L619.678 526.347H669.068L647.253 549.833ZM615.542 584.163H566.261L588.033 560.654H637.316L615.542 584.163ZM583.77 618.472H534.531L556.26 594.892H605.54L583.77 618.472ZM552.038 652.777H502.736L524.444 629.293H573.746L552.038 652.777ZM520.393 687.175H471.09L492.82 663.669H542.101L520.393 687.175ZM488.683 721.484H439.38L461.089 697.996H510.391L488.683 721.484ZM456.952 755.815H407.671L429.379 732.305H478.682L456.952 755.815ZM425.242 790.121H375.94L397.67 766.636H446.951L425.242 790.121ZM778.269 343.944L756.498 320.458H805.778L827.507 343.944H778.269ZM795.841 309.637H746.562L724.829 286.128H774.133L795.841 309.637ZM764.131 275.307H714.83L693.122 251.82H742.402L764.131 275.307ZM680.967 254.058L709.136 284.536L740.843 318.843L769.016 349.343L332.14 822.12L244.069 726.839L680.967 254.058ZM344.231 824.359L365.939 800.874H415.305L393.576 824.359H344.231Z" fill="#2FA52D" stroke="#2FA52D"/>
</g>
<defs>
<clipPath id="clip0_3_47">
<rect width="615" height="597" fill="white" transform="translate(232 241)"/>
</clipPath>
</defs>
</svg>
