<svg width="1080" height="1080" viewBox="0 0 1080 1080" fill="none" xmlns="http://www.w3.org/2000/svg">
<g clip-path="url(#clip0_1_13)">
<path d="M874.681 696.976C693.121 625.961 347.537 535.197 240.843 342.054C192.222 254.037 421.207 380.076 457.062 399.926C562.257 458.165 663.462 536.268 754.581 611.867C766.081 621.408 870.403 705.438 837.653 663.088" fill="#FFA02E"/>
<path d="M874.681 696.976C693.121 625.961 347.537 535.197 240.843 342.054C192.222 254.037 421.207 380.076 457.062 399.926C562.257 458.165 663.462 536.268 754.581 611.867C766.081 621.408 870.403 705.438 837.653 663.088" stroke="#FFA02E" stroke-width="2" stroke-linecap="round"/>
<path d="M890.557 678.964C727.369 638.7 481.101 563.013 341.776 617.174C319.415 625.866 289.935 640 288.171 664.522C285.754 698.119 329.894 746.792 373.265 746.03C447.875 744.717 517.517 714.67 586.957 702.409C651.799 690.958 718.777 682.083 790.005 685.187C802.776 685.744 874.57 702.814 860.986 698.56" fill="#FFA02E"/>
<path d="M890.557 678.964C727.369 638.7 481.101 563.013 341.776 617.174C319.415 625.866 289.935 640 288.171 664.522C285.754 698.119 329.894 746.792 373.265 746.03C447.875 744.717 517.517 714.67 586.957 702.409C651.799 690.958 718.777 682.083 790.005 685.187C802.776 685.744 874.57 702.814 860.986 698.56" stroke="#FFA02E" stroke-width="2" stroke-linecap="round"/>
<path d="M876.869 652.08C702.75 586.936 573.644 496.825 446.284 365.016C429.65 347.801 300 173.853 359.91 192.154C625.686 273.343 728.234 542.404 895.861 708.773" fill="#FFA02E"/>
<path d="M876.869 652.08C702.75 586.936 573.644 496.825 446.284 365.016C429.65 347.801 300 173.853 359.91 192.154C625.686 273.343 728.234 542.404 895.861 708.773" stroke="#FFA02E" stroke-width="2" stroke-linecap="round"/>
</g>
<defs>
<clipPath id="clip0_1_13">
<rect width="513" height="791" fill="white" transform="translate(69 588.271) rotate(-60)"/>
</clipPath>
</defs>
</svg>
