<svg width="1080" height="1080" viewBox="0 0 1080 1080" fill="none" xmlns="http://www.w3.org/2000/svg">
<g clip-path="url(#clip0_1_2)">
<path d="M720.022 215.208C687.122 243.729 672.159 279.142 651.632 317.455C624.98 367.204 598.271 416.509 573.265 467.094" fill="#1D7EF8"/>
<path d="M720.022 215.208C687.122 243.729 672.159 279.142 651.632 317.455C624.98 367.204 598.271 416.509 573.265 467.094" stroke="#1D7EF8" stroke-width="1.90596" stroke-linecap="round"/>
<path d="M520.21 553.105C482.927 596.839 459.443 646.89 434.631 698.545C411.068 747.601 389.046 797.311 366.935 846.987" fill="#1D7EF8"/>
<path d="M520.21 553.105C482.927 596.839 459.443 646.89 434.631 698.545C411.068 747.601 389.046 797.311 366.935 846.987" stroke="#1D7EF8" stroke-width="1.90596" stroke-linecap="round"/>
<path d="M239.461 406.324C275.156 408.433 301.581 422.937 332.692 437.863C379.762 460.444 426.979 478.959 476.892 494.818" fill="#1D7EF8"/>
<path d="M239.461 406.324C275.156 408.433 301.581 422.937 332.692 437.863C379.762 460.444 426.979 478.959 476.892 494.818" stroke="#1D7EF8" stroke-width="1.90596" stroke-linecap="round"/>
<path d="M585.453 538.359C665.19 577.034 748.801 606.219 831.558 638.184Z" fill="#1D7EF8"/>
<path d="M585.453 538.359C665.19 577.034 748.801 606.219 831.558 638.184" stroke="#1D7EF8" stroke-width="1.90596" stroke-linecap="round"/>
<path d="M624.04 504.499L677.522 468.527Z" fill="#1D7EF8"/>
<path d="M624.04 504.499L677.522 468.527" stroke="#1D7EF8" stroke-width="1.90596" stroke-linecap="round"/>
<path d="M441.614 561.036L392.675 576.997Z" fill="#1D7EF8"/>
<path d="M441.614 561.036L392.675 576.997" stroke="#1D7EF8" stroke-width="1.90596" stroke-linecap="round"/>
<path d="M584.081 625.919L600.707 665.522Z" fill="#1D7EF8"/>
<path d="M584.081 625.919L600.707 665.522" stroke="#1D7EF8" stroke-width="1.90596" stroke-linecap="round"/>
<path d="M518.868 404.563C493.092 375.095 473.813 342.54 452.239 309.509Z" fill="#1D7EF8"/>
<path d="M518.868 404.563C493.092 375.095 473.813 342.54 452.239 309.509" stroke="#1D7EF8" stroke-width="1.90596" stroke-linecap="round"/>
</g>
<defs>
<clipPath id="clip0_1_2">
<rect width="650" height="750" fill="white" transform="translate(440 41) rotate(30)"/>
</clipPath>
</defs>
</svg>
